<!--?xml version="1.0" encoding="utf-8"?-->
<!-- Generator: Adobe Illustrator 18.0.0, SVG Export Plug-In . SVG Version: 6.00 Build 0)  -->

<svg version="1.1" id="_x32_" xmlns="http://www.w3.org/2000/svg" xmlns:xlink="http://www.w3.org/1999/xlink" x="0px" y="0px" viewBox="0 0 512 512" style="width: 256px; height: 256px; opacity: 1;" xml:space="preserve">
<style type="text/css">
	.st0{fill:#4B4B4B;}
</style>
<g>
	<path class="st0" d="M0,47.702v416.596h512V47.702H0z M50.881,413.417V98.583h410.238v314.834H50.881z" style="fill: rgb(89, 89, 89);"></path>
	<path class="st0" d="M203.438,215.101c19.575,0,35.501-15.926,35.501-35.503c0-19.575-15.926-35.501-35.501-35.501
		c-19.577,0-35.503,15.926-35.503,35.501C167.935,199.175,183.861,215.101,203.438,215.101z" style="fill: rgb(89, 89, 89);"></path>
	<path class="st0" d="M290.963,202.322c-7.238,0-13.989,3.715-18.055,9.942L231.38,275.85c-3.529,5.404-9.138,8.502-15.392,8.504
		c-6.306,0-11.945-3.14-15.468-8.618c-4.058-6.31-10.84-10.076-18.14-10.076c-7.298,0-14.08,3.765-18.141,10.076L94.08,384.795
		h327.623L309.02,212.263C304.952,206.037,298.203,202.322,290.963,202.322z" style="fill: rgb(89, 89, 89);"></path>
</g>
</svg>
