<!--?xml version="1.0" encoding="utf-8"?-->
<!-- Generator: Adobe Illustrator 19.1.1, SVG Export Plug-In . SVG Version: 6.00 Build 0)  -->
<svg version="1.1" id="_x31_0" xmlns="http://www.w3.org/2000/svg" xmlns:xlink="http://www.w3.org/1999/xlink" x="0px" y="0px" viewBox="0 0 512 512" style="width: 256px; height: 256px; opacity: 1;" xml:space="preserve">
<style type="text/css">
	.st0{fill:#374149;}
</style>
<g>
	<path class="st0" d="M511.323,318.689c-3.621-34.812-22.43-65.804-50.347-85.394c0.285-5.539,0.144-11.106-0.438-16.629
		c-5.75-54.914-51.688-96.324-106.848-96.324c-3.746,0-7.543,0.195-11.285,0.59c-0.031,0-0.059,0.004-0.09,0.008
		c-26.934-37.074-70.207-59.746-117.41-59.746c-5.07,0-10.206,0.27-15.273,0.801c-65.367,6.844-117.165,57.234-128.063,119.969
		C28.058,206.881-5.56,263.78,0.761,324.463c2.738,25.394,12.156,49.414,27.25,69.61c26.488,35.516,68.734,56.734,112.989,56.734
		h248.203c0.43,0,0.898,0,1.398-0.015c0.714,0.015,1.312,0.015,1.758,0.015c3.574,0,7.352-0.187,11.887-0.59l0.343-0.031
		l0.348-0.035c21.5-2.313,41.992-10.391,59.258-23.359l0.52-0.395c1.496-1.14,3.55-2.703,5.766-4.683l0.343-0.305l2.676-2.359
		l0.481-0.426l0.469-0.442C501.827,392.346,515.269,356.084,511.323,318.689z M317.288,181.873l0.008-0.004l0.062,0.148
		l11.934-5.636c5.91-2.794,12.094-4.543,18.375-5.2c2-0.21,4.027-0.316,6.023-0.316c29.219,0,53.551,21.95,56.602,51.062
		c0.973,9.293-0.301,18.41-3.789,27.098l-4.664,11.629l-0.274,0.653l0.008,0.004l-0.059,0.148l12.707,4.25
		c25.672,8.582,44.066,31.453,46.856,58.281c2.273,21.516-5.438,42.391-21.157,57.305l-2.457,2.168l-0.66,0.586
		c-0.859,0.766-1.762,1.434-2.699,2.148l-0.262,0.199c-9.989,7.504-21.852,12.18-34.078,13.496
		c-3.008,0.266-5.359,0.391-7.406,0.391c-0.168,0-0.344,0.004-0.492,0.004c-0.078,0-0.145,0-0.203-0.004l-1.676-0.168l-1.008,0.168
		h-247.98c-28.383,0-55.489-13.626-72.52-36.461c-9.676-12.946-15.715-28.383-17.465-44.594
		c-4.707-45.179,25.07-87.086,69.266-97.477l10.016-2.351l-0.282-10.285c-1.344-49.196,35.942-91.746,84.879-96.871
		c3.324-0.352,6.691-0.528,10.011-0.528c38.231,0.004,72.516,22.821,87.344,58.133l4.813,11.466L317.288,181.873z" style="fill: rgb(142, 142, 142);"></path>
	<path class="st0" d="M259.726,222.315c-1.867-2.473-5.582-2.473-7.454,0l-48.679,64.254c-2.332,3.082-0.133,7.5,3.73,7.5h20.766
		c2.582,0,4.676,2.098,4.676,4.68v66.16c0,2.586,2.094,4.676,4.679,4.676h37.114c2.582,0,4.676-2.09,4.676-4.676v-66.16
		c0-2.582,2.098-4.68,4.679-4.68h20.766c3.863,0,6.063-4.418,3.727-7.5L259.726,222.315z" style="fill: rgb(142, 142, 142);"></path>
</g>
</svg>
